<?xml version="1.0" encoding="utf-8"?>
<!-- Generator: Adobe Illustrator 23.0.3, SVG Export Plug-In . SVG Version: 6.00 Build 0)  -->
<svg version="1.1" id="Layer_1" xmlns="http://www.w3.org/2000/svg" xmlns:xlink="http://www.w3.org/1999/xlink" x="0px" y="0px"
	 viewBox="0 0 93.3 136.61" style="enable-background:new 0 0 93.3 136.61;" xml:space="preserve">
<style type="text/css">
	.st0{fill:#4D4D4F;}
	.st1{fill:#4A3CCD;}
	.st2{enable-background:new    ;}
	.st3{fill:#FFFFFF;}
	.st4{fill:#ED0000;}
	.st5{fill:#FFFFFF;stroke:#ED0000;stroke-width:3;stroke-miterlimit:10;}
</style>
<g id="Group_46_1_" transform="translate(-1478.918 621.159)">
	<path id="Rectangle_15_1_" class="st1" d="M1503.44-620.76h44.25c2.94,0,5.32,2.38,5.32,5.33v7.99c0,2.94-2.38,5.33-5.32,5.33
		h-44.25c-2.94,0-5.32-2.38-5.32-5.33v-7.99C1498.12-618.37,1500.5-620.76,1503.44-620.76z"/>
	<path id="Path_40_1_" class="st4" d="M1562.32-484.55h-73.5c-5.47,0-9.9-4.43-9.9-9.9c0,0,0,0,0,0v-116.81c0-5.47,4.43-9.9,9.9-9.9
		l0,0h4.72c1.22,0,2.21,0.99,2.21,2.21l0,0v13.42c0,3.04,2.46,5.5,5.5,5.5h48.47c3.04,0,5.5-2.46,5.5-5.5v-13.42
		c0-1.22,0.99-2.21,2.21-2.21c0,0,0,0,0,0h4.89c5.47,0,9.9,4.43,9.9,9.9v0v116.81C1572.22-488.99,1567.79-484.55,1562.32-484.55z
		 M1567.26-498.14v-88.24c-0.01-4.57-3.71-8.26-8.28-8.28h-67.22c-4.57,0.01-8.26,3.71-8.28,8.28v88.24
		c0.01,4.57,3.71,8.26,8.28,8.28h67.22C1563.54-489.88,1567.24-493.58,1567.26-498.14L1567.26-498.14z"/>
	<g id="Group_45_1_" transform="translate(1490.121 -585.215)">
		<path id="Path_41_1_" class="st4" d="M64.91,16.76h-7.96c-1.42,0-2.56-1.15-2.57-2.57V6.23c0-1.42,1.15-2.57,2.57-2.57h7.96
			c1.42,0,2.57,1.15,2.57,2.57v7.96C67.48,15.62,66.33,16.76,64.91,16.76z M56.94,4.69c-0.85,0-1.54,0.69-1.54,1.54v7.96
			c0,0.85,0.69,1.54,1.54,1.54h7.96c0.85,0,1.54-0.69,1.54-1.54V6.23c0-0.85-0.69-1.54-1.54-1.54H56.94z"/>
		<path id="Rectangle_16_1_" class="st4" d="M0.38,16h49.46c0.21,0,0.38,0.17,0.38,0.38l0,0c0,0.21-0.17,0.38-0.38,0.38H0.38
			c-0.21,0-0.38-0.17-0.38-0.38l0,0C-0.01,16.17,0.17,16,0.38,16z"/>
		<path id="Path_42_1_" class="st4" d="M64.91,32.93h-7.96c-1.42,0-2.57-1.15-2.57-2.57V22.4c0-1.42,1.15-2.57,2.57-2.57h7.96
			c1.42,0,2.57,1.15,2.57,2.57v7.96C67.48,31.78,66.33,32.93,64.91,32.93z M56.94,20.86c-0.85,0-1.54,0.69-1.54,1.54v7.96
			c0,0.85,0.69,1.54,1.54,1.54h7.96c0.85,0,1.54-0.69,1.54-1.54V22.4c0-0.85-0.69-1.54-1.54-1.54H56.94z"/>
		<path id="Rectangle_17_1_" class="st4" d="M0.38,32.17h49.46c0.21,0,0.38,0.17,0.38,0.38l0,0c0,0.21-0.17,0.38-0.38,0.38H0.38
			c-0.21,0-0.38-0.17-0.38-0.38l0,0C-0.01,32.34,0.17,32.17,0.38,32.17z"/>
		<path id="Path_43_1_" class="st4" d="M64.91,49.11h-7.96c-1.42,0-2.57-1.15-2.57-2.57v-7.96c0-1.42,1.15-2.57,2.57-2.57h7.96
			c1.42,0,2.57,1.15,2.57,2.57v7.96C67.48,47.95,66.33,49.1,64.91,49.11z M56.94,37.03c-0.85,0-1.54,0.69-1.54,1.54v7.96
			c0,0.85,0.69,1.54,1.54,1.54h7.96c0.85,0,1.54-0.69,1.54-1.54v-7.96c0-0.85-0.69-1.54-1.54-1.54H56.94z"/>
		<path id="Rectangle_18_1_" class="st4" d="M0.38,48.34h49.46c0.21,0,0.38,0.17,0.38,0.38l0,0c0,0.21-0.17,0.38-0.38,0.38H0.38
			c-0.21,0-0.38-0.17-0.38-0.38l0,0C-0.01,48.51,0.17,48.34,0.38,48.34z"/>
		<path id="Path_44_1_" class="st4" d="M64.91,65.27h-7.96c-1.42,0-2.57-1.15-2.57-2.57v-7.96c0-1.42,1.15-2.57,2.57-2.57h7.96
			c1.42,0,2.57,1.15,2.57,2.57v7.96C67.48,64.12,66.33,65.27,64.91,65.27z M56.94,53.2c-0.85,0-1.54,0.69-1.54,1.54v7.96
			c0,0.85,0.69,1.54,1.54,1.54h7.96c0.85,0,1.54-0.69,1.54-1.54v-7.96c0-0.85-0.69-1.54-1.54-1.54H56.94z"/>
		<path id="Rectangle_19_1_" class="st4" d="M0.38,64.51h49.46c0.21,0,0.38,0.17,0.38,0.38l0,0c0,0.21-0.17,0.38-0.38,0.38H0.38
			c-0.21,0-0.38-0.17-0.38-0.38l0,0C-0.01,64.68,0.17,64.51,0.38,64.51z"/>
		<path id="Path_45_1_" class="st4" d="M64.91,81.45h-7.96c-1.42,0-2.57-1.15-2.57-2.57v-7.96c0-1.42,1.15-2.57,2.57-2.57h7.96
			c1.42,0,2.57,1.15,2.57,2.57v7.96C67.48,80.29,66.33,81.44,64.91,81.45z M56.94,69.37c-0.85,0-1.54,0.69-1.54,1.54v7.96
			c0,0.85,0.69,1.54,1.54,1.54h7.96c0.85,0,1.54-0.69,1.54-1.54v-7.96c0-0.85-0.69-1.54-1.54-1.54H56.94z"/>
		<path id="Rectangle_20_1_" class="st4" d="M0.38,80.68h49.46c0.21,0,0.38,0.17,0.38,0.38l0,0c0,0.21-0.17,0.38-0.38,0.38H0.38
			c-0.21,0-0.38-0.17-0.38-0.38l0,0C-0.01,80.85,0.17,80.68,0.38,80.68z"/>
		<path id="Path_46_1_" class="st4" d="M74.78,0L61.53,13.81l-3.29-4.92l3.66,1.99L74.78,0z"/>
		<path id="Path_47_1_" class="st4" d="M74.78,16L61.53,29.81l-3.29-4.92l3.66,1.99L74.78,16z"/>
		<path id="Path_48_1_" class="st4" d="M74.78,31.88L61.53,45.7l-3.29-4.92l3.66,1.99L74.78,31.88z"/>
		<path id="Path_49_1_" class="st4" d="M74.78,48.38L61.53,62.19l-3.29-4.91l3.66,1.99L74.78,48.38z"/>
		<path id="Path_50_1_" class="st4" d="M74.78,63.85L61.53,77.66l-3.29-4.92l3.66,1.99L74.78,63.85z"/>
	</g>
</g>
</svg>
