<?xml version="1.0" encoding="utf-8"?>
<!-- Generator: Adobe Illustrator 23.0.3, SVG Export Plug-In . SVG Version: 6.00 Build 0)  -->
<svg version="1.1" id="Layer_1" xmlns="http://www.w3.org/2000/svg" xmlns:xlink="http://www.w3.org/1999/xlink" x="0px" y="0px"
	 viewBox="0 0 32.01 32.01" style="enable-background:new 0 0 32.01 32.01;" xml:space="preserve">
<style type="text/css">
	.st0{fill:#4D4D4F;}
	.st1{fill:#4A3CCD;}
	.st2{enable-background:new    ;}
	.st3{fill:#FFFFFF;}
	.st4{fill:#ED0000;}
	.st5{fill:#FFFFFF;stroke:#ED0000;stroke-width:3;stroke-miterlimit:10;}
</style>
<g>
	<circle id="Ellipse_1_2_" class="st1" cx="16" cy="16" r="16"/>
	<g class="st2">
		<path class="st3" d="M17.99,21.1c0,0.44-0.16,0.82-0.48,1.14c-0.32,0.31-0.71,0.47-1.17,0.47c-0.44,0-0.82-0.16-1.14-0.48
			c-0.31-0.32-0.47-0.7-0.47-1.13v-9.66L13,13.21c-0.25,0.25-0.54,0.37-0.9,0.37c-0.37,0-0.69-0.13-0.95-0.4s-0.4-0.59-0.4-0.95
			c0-0.37,0.14-0.69,0.41-0.97l3.54-3.59c0.37-0.37,0.83-0.55,1.38-0.55c0.52,0,0.97,0.18,1.35,0.54c0.38,0.36,0.56,0.8,0.56,1.32
			V21.1z"/>
	</g>
</g>
</svg>
