<?xml version="1.0" encoding="utf-8"?>
<!-- Generator: Adobe Illustrator 23.0.3, SVG Export Plug-In . SVG Version: 6.00 Build 0)  -->
<svg version="1.1" id="Layer_1" xmlns="http://www.w3.org/2000/svg" xmlns:xlink="http://www.w3.org/1999/xlink" x="0px" y="0px"
	 viewBox="0 0 117.27 117.27" style="enable-background:new 0 0 117.27 117.27;" xml:space="preserve">
<style type="text/css">
	.st0{fill:#4D4D4F;}
	.st1{fill:#4A3CCD;}
	.st2{enable-background:new    ;}
	.st3{fill:#FFFFFF;}
	.st4{fill:#ED0000;}
	.st5{fill:#FFFFFF;stroke:#ED0000;stroke-width:3;stroke-miterlimit:10;}
</style>
<g id="Group_44" transform="translate(-1344.063 871.918)">
	<circle id="Ellipse_4" class="st5" cx="1402.7" cy="-813.28" r="57.14"/>
	<path id="Path_39" class="st4" d="M1454.02-813.28c0,28.34-22.98,51.32-51.32,51.32c-28.34,0-51.32-22.98-51.32-51.32c0,0,0,0,0,0
		c0-28.34,22.98-51.32,51.32-51.32c0,0,0,0,0,0C1431.04-864.6,1454.02-841.63,1454.02-813.28z M1408.91-839.01
		c0-1.31-0.77-1.77-2.31-1.39c-1.82,0.54-3.67,0.98-5.54,1.33c-1.54,0.27-2.96,0.52-4.27,0.75c-1.54,0.23-3.13,0.54-4.79,0.92
		c-1.65,0.38-3.44,0.88-5.37,1.5c-0.54,0.31-0.71,0.9-0.52,1.79s0.64,1.33,1.33,1.33c1.31-0.23,2.52-0.42,3.63-0.58
		c0.9-0.14,1.8-0.21,2.71-0.23c1.92,0,3.12,0.75,3.58,2.25c0.46,1.5,0.69,4.33,0.7,8.48v21.47c0,2.54-0.08,4.54-0.23,6
		c-0.08,1.24-0.5,2.44-1.21,3.46c-0.77,0.92-1.83,1.57-3,1.85c-1.84,0.47-3.71,0.78-5.6,0.92c-0.36,0.06-0.67,0.27-0.86,0.58
		c-0.19,0.31-0.28,0.68-0.23,1.04c0.03,0.36,0.13,0.71,0.29,1.04c0.11,0.28,0.39,0.46,0.69,0.46c1.08,0,2.19-0.04,3.35-0.12
		c1.15-0.08,2.39-0.15,3.69-0.23c3-0.23,6.19-0.34,9.58-0.35c1.77,0,3.36,0.04,4.79,0.12s2.79,0.19,4.1,0.35
		c0.92,0.08,1.79,0.13,2.59,0.17c0.81,0.04,1.56,0.06,2.25,0.06c0.32-0.01,0.6-0.18,0.75-0.46c0.19-0.32,0.31-0.67,0.35-1.04
		c0.04-0.36-0.04-0.73-0.23-1.04c-0.16-0.28-0.43-0.49-0.75-0.58c-1.71-0.22-3.41-0.55-5.08-0.98c-1.11-0.27-2.11-0.9-2.83-1.79
		c-0.72-1.02-1.16-2.22-1.27-3.46c-0.22-1.99-0.32-4-0.29-6L1408.91-839.01z M1452.41-813.28c-0.03-27.44-22.27-49.68-49.71-49.71
		c-27.44,0.03-49.68,22.27-49.71,49.71c0.03,27.44,22.27,49.68,49.71,49.71C1430.14-763.6,1452.38-785.84,1452.41-813.28
		L1452.41-813.28z M1449.03-813.28c-0.03,25.58-20.76,46.31-46.34,46.34c-25.58-0.03-46.31-20.76-46.34-46.34
		c0.03-25.58,20.76-46.31,46.34-46.34C1428.28-859.59,1449.01-838.86,1449.03-813.28L1449.03-813.28z"/>
</g>
</svg>
