<?xml version="1.0" encoding="utf-8"?>
<!-- Generator: Adobe Illustrator 23.0.3, SVG Export Plug-In . SVG Version: 6.00 Build 0)  -->
<svg version="1.1" id="Layer_1" xmlns="http://www.w3.org/2000/svg" xmlns:xlink="http://www.w3.org/1999/xlink" x="0px" y="0px"
	 viewBox="0 0 32.01 32.01" style="enable-background:new 0 0 32.01 32.01;" xml:space="preserve">
<style type="text/css">
	.st0{fill:#4D4D4F;}
	.st1{fill:#4A3CCD;}
	.st2{enable-background:new    ;}
	.st3{fill:#FFFFFF;}
	.st4{fill:#ED0000;}
	.st5{fill:#FFFFFF;stroke:#ED0000;stroke-width:3;stroke-miterlimit:10;}
</style>
<g id="Group_25">
	<circle id="Ellipse_1-2" class="st1" cx="16" cy="16" r="16"/>
	<g class="st2">
		<path class="st3" d="M21.78,22.04c0,0.43-0.14,0.8-0.43,1.09c-0.29,0.3-0.63,0.44-1.03,0.44h-9.26c-0.43,0-0.81-0.16-1.13-0.48
			c-0.32-0.32-0.48-0.71-0.48-1.18c0-0.61,0.24-1.09,0.72-1.44c3.09-2.29,5.18-3.97,6.26-5.05c1.09-1.08,1.63-2.08,1.63-2.99
			c0-0.66-0.26-1.17-0.77-1.54s-1.12-0.55-1.82-0.55c-1.23,0-2.33,0.33-3.29,0.98c-0.3,0.21-0.63,0.31-0.98,0.31
			c-0.4,0-0.75-0.15-1.04-0.44c-0.3-0.3-0.44-0.66-0.44-1.09c0-0.24,0.07-0.47,0.22-0.7c0.37-0.59,1.11-1.09,2.22-1.49
			c1.11-0.4,2.2-0.6,3.25-0.6c1.76,0,3.22,0.46,4.38,1.39c1.16,0.93,1.74,2.17,1.74,3.72c0,1.31-0.52,2.6-1.55,3.85
			c-1.03,1.26-2.65,2.68-4.86,4.28h5.21c0.4,0,0.74,0.14,1.03,0.43C21.63,21.29,21.78,21.64,21.78,22.04z"/>
	</g>
</g>
</svg>
