<?xml version="1.0" encoding="utf-8"?>
<!-- Generator: Adobe Illustrator 23.0.3, SVG Export Plug-In . SVG Version: 6.00 Build 0)  -->
<svg version="1.1" id="Layer_1" xmlns="http://www.w3.org/2000/svg" xmlns:xlink="http://www.w3.org/1999/xlink" x="0px" y="0px"
	 viewBox="0 0 164.97 120.03" style="enable-background:new 0 0 164.97 120.03;" xml:space="preserve">
<style type="text/css">
	.st0{fill:#4D4D4F;}
	.st1{fill:#4A3CCD;}
	.st2{enable-background:new    ;}
	.st3{fill:#FFFFFF;}
	.st4{fill:#ED0000;}
	.st5{fill:#FFFFFF;stroke:#ED0000;stroke-width:3;stroke-miterlimit:10;}
</style>
<g id="Group_43" transform="translate(-1484.682 344.973)">
	<g id="Group_42" transform="translate(2147.187 -342.383)">
		<ellipse id="Ellipse_3" class="st4" cx="-580.46" cy="14.84" rx="16.63" ry="3.82"/>
		<path id="Rectangle_13" class="st4" d="M-563.6-1.95L-563.6-1.95c0.86,0.86,0.86,2.25,0,3.11l-13.96,13.96
			c-0.86,0.86-2.25,0.86-3.11,0l0,0c-0.86-0.86-0.86-2.25,0-3.11l13.96-13.96C-565.85-2.8-564.46-2.8-563.6-1.95z"/>
		<path id="Rectangle_14" class="st4" d="M-596.45-1.95L-596.45-1.95c0.86-0.86,2.25-0.86,3.11,0l13.96,13.96
			c0.86,0.86,0.86,2.25,0,3.11l0,0c-0.86,0.86-2.25,0.86-3.11,0l-13.96-13.96C-597.3,0.3-597.3-1.09-596.45-1.95z"/>
	</g>
	<path id="Path_38" class="st1" d="M1642.18-329.21h-150.04c-4.12,0-7.46,3.34-7.46,7.46v81.01c0,4.12,3.34,7.46,7.46,7.46h20.07
		c1,6.65,2.19,8.04,6.82,8.29c5.36,0.29,6.58-0.85,8.59-8.29h77.5c1.7,6.06,2.85,6.78,8.25,6.88c4.87,0.08,6.53-2.7,6.92-6.88h21.89
		c4.12,0,7.46-3.34,7.46-7.46v-81.01C1649.65-325.87,1646.3-329.21,1642.18-329.21C1642.18-329.21,1642.18-329.21,1642.18-329.21z
		 M1641.13-242.57c0,0.65-0.53,1.18-1.18,1.18h-145.58c-0.65,0-1.18-0.53-1.18-1.18v-77.34c0-0.65,0.53-1.18,1.18-1.18h145.58
		c0.65,0,1.18,0.53,1.18,1.18L1641.13-242.57z"/>
</g>
</svg>
