<?xml version="1.0" encoding="utf-8"?>
<!-- Generator: Adobe Illustrator 23.0.3, SVG Export Plug-In . SVG Version: 6.00 Build 0)  -->
<svg version="1.1" id="Layer_1" xmlns="http://www.w3.org/2000/svg" xmlns:xlink="http://www.w3.org/1999/xlink" x="0px" y="0px"
	 viewBox="0 0 32.01 32.01" style="enable-background:new 0 0 32.01 32.01;" xml:space="preserve">
<style type="text/css">
	.st0{fill:#4D4D4F;}
	.st1{fill:#4A3CCD;}
	.st2{enable-background:new    ;}
	.st3{fill:#FFFFFF;}
	.st4{fill:#ED0000;}
	.st5{fill:#FFFFFF;stroke:#ED0000;stroke-width:3;stroke-miterlimit:10;}
</style>
<g id="Group_27" transform="translate(313)">
	<circle id="Ellipse_1_1_" class="st1" cx="-297" cy="16" r="16"/>
	<g class="st2">
		<path class="st3" d="M-291.44,19.16c0,1.39-0.58,2.52-1.73,3.4c-1.15,0.87-2.68,1.31-4.58,1.31c-1.2,0-2.37-0.2-3.5-0.6
			c-1.14-0.4-1.89-0.9-2.26-1.51c-0.13-0.21-0.19-0.42-0.19-0.65c0-0.42,0.16-0.77,0.48-1.07s0.68-0.44,1.08-0.44
			c0.3,0,0.58,0.08,0.84,0.24c1.14,0.67,2.28,1.01,3.43,1.01c0.96,0,1.7-0.19,2.23-0.56c0.53-0.38,0.79-0.87,0.79-1.48
			c0-0.64-0.26-1.11-0.77-1.4c-0.51-0.3-1.33-0.44-2.45-0.44c-0.62,0.08-1.14-0.02-1.54-0.29c-0.4-0.27-0.6-0.68-0.6-1.22
			c0-0.43,0.14-0.79,0.43-1.07c0.29-0.28,0.66-0.42,1.13-0.42c2.35,0.11,3.53-0.46,3.53-1.7c0-0.61-0.28-1.08-0.83-1.4
			c-0.55-0.33-1.27-0.49-2.15-0.49c-1.12,0-2.15,0.3-3.1,0.91c-0.22,0.16-0.5,0.24-0.82,0.24c-0.38,0-0.73-0.14-1.03-0.42
			c-0.3-0.28-0.46-0.62-0.46-1.02c0-0.43,0.17-0.78,0.5-1.03c1.42-1.14,3.18-1.7,5.26-1.7c1.87,0,3.35,0.39,4.43,1.18
			c1.08,0.78,1.62,1.84,1.62,3.17c0,0.96-0.34,1.76-1.03,2.41c-0.69,0.65-1.51,1.06-2.47,1.24c0.94,0.1,1.8,0.48,2.58,1.16
			S-291.44,18.05-291.44,19.16z"/>
	</g>
</g>
</svg>
