<?xml version="1.0" encoding="utf-8"?>
<!-- Generator: Adobe Illustrator 23.0.3, SVG Export Plug-In . SVG Version: 6.00 Build 0)  -->
<svg version="1.1" id="Layer_1" xmlns="http://www.w3.org/2000/svg" xmlns:xlink="http://www.w3.org/1999/xlink" x="0px" y="0px"
	 viewBox="0 0 190.28 80.18" style="enable-background:new 0 0 190.28 80.18;" xml:space="preserve">
<style type="text/css">
	.st0{fill:#4D4D4F;}
	.st1{fill:#4A3CCD;}
	.st2{enable-background:new    ;}
	.st3{fill:#FFFFFF;}
	.st4{fill:#ED0000;}
	.st5{fill:#FFFFFF;stroke:#ED0000;stroke-width:3;stroke-miterlimit:10;}
	.st6{font-family:'PlantagenetCherokee';}
	.st7{font-size:68.39px;}
	.st8{font-size:55px;}
	.st9{font-size:32px;}
</style>
<g>
	<g id="Group_30" transform="translate(901.24 51.558)">
		<path id="Rectangle_4" class="st1" d="M-892.77-12.23h58.05c4.68,0,8.47,3.79,8.47,8.47v21.41c0,4.68-3.79,8.47-8.47,8.47h-58.05
			c-4.68,0-8.47-3.79-8.47-8.47V-3.76C-901.24-8.44-897.45-12.23-892.77-12.23z"/>
		<path id="Rectangle_5" class="st4" d="M-843.49-44.7h69.61c5.91,0,10.69,4.79,10.69,10.69v49.44c0,5.91-4.79,10.69-10.69,10.69
			h-69.61c-5.91,0-10.69-4.79-10.69-10.69v-49.44C-854.19-39.91-849.4-44.7-843.49-44.7z"/>
		<path id="Rectangle_6" class="st1" d="M-775.96-27.29h55c5.52,0,10,4.48,10,10v33.42c0,5.52-4.48,10-10,10h-55
			c-5.52,0-10-4.48-10-10v-33.42C-785.96-22.81-781.48-27.29-775.96-27.29z"/>
	</g>
	<text transform="matrix(1 0 0 1 72.2591 57.5844)" class="st3 st6 st7">1</text>
	<text transform="matrix(1 0 0 1 139.7601 62.8504)" class="st3 st6 st8">2</text>
	<text transform="matrix(1 0 0 1 18.7601 62.8504)" class="st3 st6 st9">3</text>
</g>
</svg>
