<?xml version="1.0" encoding="utf-8"?>
<!-- Generator: Adobe Illustrator 23.0.3, SVG Export Plug-In . SVG Version: 6.00 Build 0)  -->
<svg version="1.1" id="Layer_1" xmlns="http://www.w3.org/2000/svg" xmlns:xlink="http://www.w3.org/1999/xlink" x="0px" y="0px"
	 viewBox="0 0 32.01 32.01" style="enable-background:new 0 0 32.01 32.01;" xml:space="preserve">
<style type="text/css">
	.st0{fill:#4D4D4F;}
	.st1{fill:#4A3CCD;}
	.st2{enable-background:new    ;}
	.st3{fill:#FFFFFF;}
	.st4{fill:#ED0000;}
	.st5{fill:#FFFFFF;stroke:#ED0000;stroke-width:3;stroke-miterlimit:10;}
</style>
<g id="Group_28" transform="translate(626)">
	<circle id="Ellipse_1-3" class="st1" cx="-610" cy="16" r="16"/>
	<g class="st2">
		<path class="st3" d="M-603.67,18.77c0,0.4-0.14,0.75-0.43,1.04s-0.63,0.44-1.03,0.44h-0.74v1.78c0,0.46-0.17,0.86-0.5,1.19
			s-0.74,0.49-1.22,0.49c-0.45,0-0.84-0.17-1.18-0.5c-0.34-0.34-0.5-0.73-0.5-1.18v-1.78h-6.02c-0.48,0-0.89-0.18-1.24-0.54
			c-0.34-0.36-0.52-0.8-0.52-1.33c0-0.42,0.1-0.78,0.31-1.1l5.35-8.45c0.27-0.43,0.65-0.78,1.13-1.03c0.48-0.26,0.98-0.38,1.49-0.38
			c0.77-0.13,1.44-0.02,2.03,0.32c0.58,0.34,0.88,0.88,0.88,1.6v7.92h0.74c0.4,0,0.74,0.15,1.03,0.44
			C-603.81,18-603.67,18.36-603.67,18.77z M-609.29,17.26v-6.67l-4.32,6.67H-609.29z"/>
	</g>
</g>
</svg>
