<?xml version="1.0" encoding="utf-8"?>
<!-- Generator: Adobe Illustrator 23.0.3, SVG Export Plug-In . SVG Version: 6.00 Build 0)  -->
<svg version="1.1" id="Layer_1" xmlns="http://www.w3.org/2000/svg" xmlns:xlink="http://www.w3.org/1999/xlink" x="0px" y="0px"
	 viewBox="0 0 198.49 78.5" style="enable-background:new 0 0 198.49 78.5;" xml:space="preserve">
<style type="text/css">
	.st0{fill:#D70076;}
</style>
<g id="Group_21" transform="translate(0 -0.374)">
	<g id="Group_20" transform="translate(0 0.374)">
		<path id="Path_32" class="st0" d="M36.15,54.23c0.08,4.82-1.84,9.45-5.3,12.8c-3.35,3.44-7.97,5.35-12.77,5.28H9.04v-9.04h9.04
			c2.39,0.03,4.69-0.93,6.36-2.65c1.74-1.66,2.71-3.98,2.68-6.38v-2.46c-2.73,1.63-5.86,2.48-9.04,2.46
			c-4.81,0.07-9.43-1.84-12.78-5.3c-7.06-7.04-7.07-18.47-0.03-25.52c0.01-0.01,0.02-0.02,0.03-0.03c3.34-3.45,7.97-5.37,12.78-5.3
			c3.18-0.02,6.31,0.83,9.04,2.46v-2.46h9.04V54.23z M27.11,36.15c0.05-4.94-3.93-8.99-8.87-9.04c-0.06,0-0.11,0-0.17,0
			c-5.01,0.02-9.06,4.1-9.04,9.11c0.01,2.38,0.95,4.66,2.62,6.35c1.68,1.72,4.01,2.67,6.42,2.62c4.95,0.05,8.99-3.93,9.04-8.87
			C27.11,36.26,27.11,36.21,27.11,36.15L27.11,36.15z"/>
		<path id="Path_33" class="st0" d="M78.99,36.15c0.01,9.98-8.08,18.07-18.06,18.08c-4.8,0-9.4-1.9-12.79-5.3
			c-7.06-7.04-7.07-18.47-0.03-25.52c0.01-0.01,0.02-0.02,0.03-0.03c7.06-7.06,18.51-7.05,25.56,0.01
			C77.09,26.77,78.99,31.36,78.99,36.15z M69.96,36.15c-0.05-4.94-4.09-8.92-9.04-8.87s-8.92,4.09-8.87,9.04
			c0.05,4.94,4.09,8.92,9.04,8.87c2.35-0.02,4.59-0.96,6.25-2.62C69.05,40.88,70,38.56,69.96,36.15L69.96,36.15z"/>
		<path id="Path_34" class="st0" d="M121.84,36.15c0.01,9.98-8.08,18.08-18.06,18.09c-9.98,0.01-18.08-8.08-18.09-18.06
			c0-4.8,1.9-9.41,5.3-12.8c7.06-7.06,18.51-7.05,25.56,0.01C119.93,26.77,121.84,31.36,121.84,36.15L121.84,36.15z M112.8,36.15
			c-0.05-4.95-4.09-8.92-9.04-8.87c-4.95,0.05-8.92,4.09-8.87,9.04c0.05,4.95,4.09,8.92,9.04,8.87c2.35-0.02,4.59-0.96,6.25-2.62
			C111.9,40.88,112.85,38.56,112.8,36.15L112.8,36.15z"/>
		<path id="Path_35" class="st0" d="M164.68,54.23h-9.04v-2.45c-7.07,4.13-16.04,2.96-21.81-2.85c-3.46-3.34-5.37-7.97-5.3-12.78
			c-0.07-4.81,1.85-9.43,5.3-12.77c5.77-5.81,14.74-6.98,21.81-2.85V0h9.04V54.23z M155.65,36.15c-0.03-4.99-4.1-9.02-9.09-8.99
			c-4.99,0.03-9.02,4.1-8.99,9.09c0.01,2.37,0.95,4.63,2.62,6.31c3.52,3.54,9.24,3.56,12.78,0.05
			C154.7,40.9,155.66,38.58,155.65,36.15z"/>
		<path id="Path_36" class="st0" d="M198.49,27.11c-4.94-0.05-8.99,3.92-9.04,8.87c0,0.06,0,0.11,0,0.17
			c-0.01,9.98-8.1,18.07-18.08,18.08v-9.04c4.94,0.05,8.99-3.92,9.04-8.87c0-0.06,0-0.11,0-0.17c0.01-9.98,8.1-18.06,18.08-18.07
			V27.11z"/>
		<path id="Path_37" class="st0" d="M100.26,65.52c-0.72-0.72-1.7-1.13-2.72-1.13l0,0c-1.02,0-2,0.4-2.72,1.13
			c-7.02,7.02-18.39,7.04-25.44,0.06c-1.53-1.47-3.97-1.42-5.44,0.11c-1.44,1.5-1.43,3.87,0.03,5.36
			c10.06,9.97,26.29,9.93,36.3-0.09C101.77,69.46,101.77,67.02,100.26,65.52C100.27,65.52,100.27,65.52,100.26,65.52L100.26,65.52z"
			/>
	</g>
</g>
</svg>
