<?xml version="1.0" encoding="utf-8"?>
<!-- Generator: Adobe Illustrator 23.0.3, SVG Export Plug-In . SVG Version: 6.00 Build 0)  -->
<svg version="1.1" id="Layer_1" xmlns="http://www.w3.org/2000/svg" xmlns:xlink="http://www.w3.org/1999/xlink" x="0px" y="0px"
	 viewBox="0 0 357.02 22.36" style="enable-background:new 0 0 357.02 22.36;" xml:space="preserve">
<style type="text/css">
	.st0{fill:#4A3CCD;}
</style>
<g id="RTG_Logo" transform="translate(102 -46)">
	<path id="Path_2" class="st0" d="M-95.98,58.6l5.51,7.58h-3.28l-5.08-7.28h-0.48v7.28H-102V48.39h3.15c2.35,0,4.05,0.44,5.09,1.32
		c1.14,0.96,1.78,2.4,1.73,3.89c0.03,1.18-0.35,2.32-1.08,3.25C-93.83,57.76-94.85,58.38-95.98,58.6z M-99.32,56.56h0.85
		c2.54,0,3.81-0.97,3.81-2.91c0-1.82-1.24-2.73-3.71-2.73h-0.96L-99.32,56.56z"/>
	<path id="Path_3" class="st0" d="M-67,61.86h-7.61l-1.98,4.32h-2.89l8.8-18.9l8.49,18.9h-2.94L-67,61.86z M-68.09,59.34l-2.64-6.05
		l-2.76,6.05H-68.09z"/>
	<path id="Path_4" class="st0" d="M-46.91,48.39v17.78h-2.68V48.39H-46.91z"/>
	<path id="Path_5" class="st0" d="M-22.2,51.04l-2.18,1.29c-0.27-0.55-0.67-1.02-1.16-1.38c-0.45-0.26-0.97-0.39-1.49-0.37
		c-0.67-0.02-1.33,0.2-1.85,0.63c-0.48,0.38-0.75,0.96-0.74,1.57c0,0.87,0.64,1.57,1.93,2.1l1.77,0.73
		c1.22,0.43,2.31,1.17,3.17,2.14c0.68,0.88,1.04,1.98,1,3.09c0.05,1.52-0.55,2.99-1.64,4.05c-1.09,1.07-2.56,1.65-4.09,1.61
		c-1.4,0.05-2.77-0.44-3.82-1.37c-1.05-1.03-1.71-2.4-1.85-3.86l2.72-0.6c0.03,0.76,0.25,1.51,0.65,2.16
		c1.06,1.32,2.99,1.54,4.31,0.48c0.07-0.05,0.13-0.11,0.19-0.17c0.56-0.57,0.85-1.34,0.83-2.13c0-0.32-0.04-0.64-0.14-0.95
		c-0.1-0.29-0.25-0.56-0.45-0.79c-0.23-0.26-0.49-0.49-0.79-0.68c-0.37-0.23-0.75-0.43-1.15-0.6l-1.72-0.71
		c-2.43-1.03-3.65-2.53-3.65-4.51c-0.02-1.29,0.54-2.52,1.53-3.35c1.05-0.92,2.42-1.4,3.81-1.36C-24.97,48.05-23.1,49.21-22.2,51.04
		z"/>
	<path id="Path_6" class="st0" d="M1.66,50.92h-7.13v4.27h6.92v2.52h-6.92v5.94h7.13v2.52h-9.81V48.39h9.81L1.66,50.92z"/>
	<path id="Path_7" class="st0" d="M38.1,50.92v15.26h-2.68V50.92h-4.09V48.4h10.85v2.52H38.1z"/>
	<path id="Path_8" class="st0" d="M57.61,55.35h7.67V48.4h2.68v17.78h-2.68v-8.3h-7.67v8.3h-2.68V48.39h2.68V55.35z"/>
	<path id="Path_9" class="st0" d="M92.4,50.92h-7.13v4.27h6.92v2.52h-6.92v5.94h7.13v2.52h-9.81V48.39h9.81V50.92z"/>
	<path id="Path_10" class="st0" d="M133.06,56.92h7.35v0.59c0.02,1.2-0.14,2.39-0.47,3.55c-0.33,0.99-0.86,1.9-1.56,2.67
		c-1.58,1.83-3.89,2.85-6.3,2.79c-2.41,0.03-4.73-0.95-6.39-2.7c-3.58-3.67-3.51-9.55,0.16-13.13c2.75-2.69,6.88-3.4,10.37-1.79
		c1.3,0.69,2.46,1.63,3.4,2.76l-1.91,1.83c-1.18-1.8-3.18-2.89-5.33-2.91c-1.78-0.04-3.5,0.66-4.73,1.95
		c-1.27,1.27-1.96,3-1.91,4.79c0,3.6,2.85,6.55,6.45,6.68c1.31,0,2.58-0.47,3.56-1.34c1-0.8,1.63-1.96,1.76-3.22h-4.43L133.06,56.92
		z"/>
	<path id="Path_11" class="st0" d="M153.25,57.2c-0.03-2.44,0.97-4.78,2.75-6.45c1.74-1.76,4.12-2.74,6.59-2.7
		c5.1,0.03,9.22,4.15,9.25,9.25c0.04,2.46-0.95,4.82-2.74,6.51c-3.53,3.46-9.14,3.59-12.83,0.3
		C154.27,62.38,153.16,59.85,153.25,57.2z M155.95,57.24c-0.06,1.82,0.66,3.59,1.98,4.85c2.57,2.55,6.72,2.53,9.27-0.03
		c2.56-2.66,2.57-6.86,0.02-9.54c-2.59-2.58-6.77-2.58-9.36,0C156.6,53.76,155.91,55.47,155.95,57.24z"/>
	<path id="Path_12" class="st0" d="M184.7,57.2c-0.03-2.44,0.97-4.78,2.75-6.45c1.74-1.76,4.12-2.74,6.59-2.7
		c5.1,0.03,9.22,4.15,9.25,9.25c0.04,2.46-0.95,4.82-2.74,6.51c-3.53,3.46-9.14,3.59-12.83,0.3
		C185.72,62.38,184.61,59.85,184.7,57.2z M187.41,57.24c-0.06,1.82,0.66,3.59,1.98,4.85c2.57,2.55,6.72,2.53,9.27-0.03
		c2.56-2.66,2.57-6.86,0.02-9.54c-2.59-2.58-6.78-2.58-9.36,0C188.06,53.76,187.37,55.47,187.41,57.24L187.41,57.24z"/>
	<path id="Path_13" class="st0" d="M217.02,66.18V48.39h3.73c1.43-0.05,2.86,0.13,4.24,0.53c1.13,0.35,2.16,0.96,3.03,1.76
		c3.62,3.56,3.67,9.39,0.11,13.01c-0.07,0.08-0.15,0.15-0.23,0.22c-0.87,0.79-1.9,1.39-3.02,1.76c-1.36,0.38-2.77,0.55-4.18,0.5
		L217.02,66.18z M219.7,63.66h1.21c1.02,0.03,2.03-0.1,3.01-0.38c2.55-0.86,4.24-3.3,4.15-5.99c0.07-1.79-0.65-3.52-1.96-4.74
		c-1.46-1.18-3.32-1.76-5.19-1.62h-1.21L219.7,63.66z"/>
	<path id="Path_14" class="st0" d="M254.56,51.04l-2.18,1.29c-0.27-0.55-0.67-1.02-1.16-1.38c-0.45-0.26-0.96-0.39-1.48-0.37
		c-0.67-0.02-1.33,0.2-1.85,0.63c-0.48,0.38-0.75,0.96-0.74,1.57c0,0.87,0.65,1.57,1.94,2.1l1.77,0.73
		c1.22,0.43,2.31,1.16,3.17,2.14c0.68,0.88,1.04,1.98,1,3.09c0.05,1.52-0.55,2.99-1.64,4.05c-1.09,1.07-2.56,1.65-4.09,1.61
		c-1.4,0.05-2.77-0.44-3.82-1.37c-1.05-1.03-1.7-2.4-1.85-3.86l2.72-0.6c0.03,0.76,0.25,1.51,0.65,2.16
		c1.06,1.32,2.98,1.54,4.31,0.48c0.07-0.05,0.13-0.11,0.19-0.17c0.56-0.57,0.85-1.34,0.83-2.13c0-0.32-0.04-0.64-0.14-0.95
		c-0.1-0.29-0.25-0.56-0.45-0.79c-0.23-0.26-0.49-0.49-0.79-0.68c-0.37-0.23-0.75-0.43-1.15-0.6l-1.72-0.71
		c-2.43-1.03-3.65-2.53-3.65-4.51c-0.02-1.29,0.54-2.52,1.53-3.35c1.05-0.92,2.42-1.4,3.81-1.36
		C251.79,48.05,253.66,49.21,254.56,51.04z"/>
	<rect id="Rectangle_2" x="249.12" y="46" class="st0" width="1.84" height="3.39"/>
	<rect id="Rectangle_3" x="248.73" y="64.91" class="st0" width="2.07" height="3.45"/>
</g>
</svg>
